<svg xmlns="http://www.w3.org/2000/svg" xmlns:xlink="http://www.w3.org/1999/xlink" width="8" height="9" viewBox="0 0 8 9"><defs><path id="b" d="M0 0h992v60H0z"/><filter id="a" width="101.4%" height="123.3%" x="-.7%" y="-8.3%" filterUnits="objectBoundingBox"><feOffset dy="1" in="SourceAlpha" result="shadowOffsetOuter1"/><feGaussianBlur in="shadowOffsetOuter1" result="shadowBlurOuter1" stdDeviation="1.5"/><feColorMatrix in="shadowBlurOuter1" result="shadowMatrixOuter1" values="0 0 0 0 0 0 0 0 0 0 0 0 0 0 0 0 0 0 0.1 0"/><feOffset dy="1" in="SourceAlpha" result="shadowOffsetOuter2"/><feGaussianBlur in="shadowOffsetOuter2" result="shadowBlurOuter2" stdDeviation="1"/><feColorMatrix in="shadowBlurOuter2" result="shadowMatrixOuter2" values="0 0 0 0 0 0 0 0 0 0 0 0 0 0 0 0 0 0 0.2 0"/><feMerge><feMergeNode in="shadowMatrixOuter1"/><feMergeNode in="shadowMatrixOuter2"/></feMerge></filter></defs><g fill="none" fill-rule="evenodd" transform="translate(-130 -17)"><use fill="#000" filter="url(#a)" xlink:href="#b"/><use fill="#FFF" xlink:href="#b"/><path d="M131.69 22.733a2.813 2.813 0 0 1-.69-1.844c0-1.596 1.343-2.889 3-2.889s3 1.293 3 2.889a2.81 2.81 0 0 1-.642 1.786L134 26l-2.31-3.267zm2.403-1.116c.548 0 .993-.426.993-.951 0-.526-.445-.952-.993-.952s-.993.426-.993.952c0 .525.445.951.993.951z" fill="#FFF" stroke="#5C5C5C" stroke-width=".5"/></g></svg>