<svg xmlns="http://www.w3.org/2000/svg" xmlns:xlink="http://www.w3.org/1999/xlink" width="80" height="40" viewBox="0 0 80 40"><defs><path id="b" d="M0 0h992v60H0z"/><filter id="a" width="101.4%" height="123.3%" x="-.7%" y="-8.3%" filterUnits="objectBoundingBox"><feOffset dy="1" in="SourceAlpha" result="shadowOffsetOuter1"/><feGaussianBlur in="shadowOffsetOuter1" result="shadowBlurOuter1" stdDeviation="1.5"/><feColorMatrix in="shadowBlurOuter1" result="shadowMatrixOuter1" values="0 0 0 0 0 0 0 0 0 0 0 0 0 0 0 0 0 0 0.1 0"/><feOffset dy="1" in="SourceAlpha" result="shadowOffsetOuter2"/><feGaussianBlur in="shadowOffsetOuter2" result="shadowBlurOuter2" stdDeviation="1"/><feColorMatrix in="shadowBlurOuter2" result="shadowMatrixOuter2" values="0 0 0 0 0 0 0 0 0 0 0 0 0 0 0 0 0 0 0.2 0"/><feMerge><feMergeNode in="shadowMatrixOuter1"/><feMergeNode in="shadowMatrixOuter2"/></feMerge></filter></defs><g fill="none" fill-rule="evenodd" transform="translate(-31 -10)"><use fill="#000" filter="url(#a)" xlink:href="#b"/><use fill="#FFF" xlink:href="#b"/><path fill="#F6DE34" d="M31 29.893c0-10.652 17.832-19.266 39.844-19.266 22.013 0 39.845 8.637 39.845 19.266 0 10.65-17.832 19.266-39.845 19.266C48.832 49.159 31 40.544 31 29.893z"/><path fill="#0095D6" d="M31.044 29.937C31.044 19.04 48.565 10 71.111 10 93.68 10 111 19.04 111 29.937c0 10.898-17.32 19.938-39.889 19.938-22.546 0-40.067-9.04-40.067-19.938zm2.002 0c0-10.159 17.053-18.594 38.065-18.594 21.034 0 38.088 8.435 38.088 18.594 0 10.16-17.054 18.595-38.088 18.595-21.034 0-38.065-8.436-38.065-18.595z"/><path fill="#0095D6" d="M34.446 29.937c0-9.733 16.41-17.61 36.665-17.61 20.256 0 36.665 7.877 36.665 17.61 0 9.734-16.41 17.61-36.665 17.61-20.256 0-36.665-7.876-36.665-17.61z"/><path fill="#F6DE34" d="M61.172 20.36l-5.514 11.636H43.496l9.272 4.296-.89 3.491 5.18-1.835 1.713 3.558 3.002-2.282 5.18 3.065-2.068-4.878 25.592-5.393H67.732l1.022-3.67-4.713 2.171-2.89-10.159h.021zm.69-6.981l3.868 13.896 6.715-2.753-1.6 5.751h36.175l-38.688 8.436 3.202 7.608-9.406-4.789-4.046 2.932-2.024-4.252-7.448 2.864 1.378-6.108-15.141-6.713h19.01l7.96-16.895.045.023z"/><path fill="#F6DE34" d="M88.654 41.82c-.066-.426-.289-1.545-.822-2.082-.467-.492-1.89-.693-2.513-.783-.4-.045-.4-.067 0-.112.645-.09 2.046-.29 2.513-.783.511-.515.733-1.611.8-2.059.022-.112.044-.112.044 0 .067.448.29 1.544.8 2.059.49.515 1.913.716 2.558.783.378.045.378.045 0 .09-.645.09-2.068.29-2.557.783-.511.537-.734 1.656-.8 2.08-.023.113-.023.113-.045 0l.022.023zm-7.626 3.758c-.045-.313-.2-1.118-.6-1.521-.356-.358-1.38-.515-1.846-.56-.29-.044-.29-.044 0-.089.467-.067 1.49-.201 1.845-.56.378-.38.534-1.185.579-1.499.022-.09.022-.09.044 0 .044.336.2 1.12.578 1.5.356.38 1.4.514 1.868.581.289.045.289.045 0 .09-.467.067-1.512.201-1.868.582-.378.402-.534 1.208-.578 1.521-.022.09-.022.09-.044 0l.022-.045zm-4.002-1.812c-.045-.224-.156-.828-.423-1.119-.244-.268-1-.38-1.334-.403-.222-.022-.222-.022 0-.067.334-.044 1.09-.156 1.334-.425.267-.268.378-.85.423-1.096 0-.067.022-.067.022 0 .044.246.155.828.422 1.096.245.269 1.023.38 1.357.425.2.023.2.023 0 .067-.334.045-1.09.157-1.357.426-.289.29-.4.872-.422 1.096 0 .067-.022.067-.022 0zm1.534-16.939h-.979c-.355 0-.644-.09-.822-.246-.2-.18-.29-.403-.29-.739 0-.111.023-.268.045-.425l.267-1.118c.022-.045 0-.09-.044-.135-.045-.044-.09-.067-.134-.067l.022-.157h1.846c.089 0 .133.023.178.045.022.045.044.09.044.157v.09l-.289 1.23c-.022.112-.044.18-.044.224 0 .09.022.156.089.179.066.022.177.045.31.045l.379-1.634a.305.305 0 0 0-.045-.134c-.044-.045-.089-.067-.133-.067l.044-.157h1.846c.089 0 .133.022.156.045.044.045.044.09.044.157l-.022.089-.912 3.938c0 .045.022.09.067.135a.201.201 0 0 0 .156.067l-.045.156H78.45c-.134 0-.223-.067-.223-.223 0-.023 0-.045.022-.112l.312-1.41v.067zm4.713 2.842h-1.4c-.223 0-.4-.045-.512-.112a.493.493 0 0 1-.178-.403c0-.09.023-.179.045-.268l.133-.56h.156c.022.09.067.18.133.202.067.044.156.067.312.067h.8c.178 0 .334-.045.423-.112.088-.067.155-.201.2-.38l.044-.224h-.111c-.089.179-.2.29-.334.335-.089.045-.244.045-.489.045h-.333c-.467 0-.69-.246-.69-.76 0-.18.045-.448.112-.761l.31-1.32c0-.023.023-.045.023-.09v-.067c0-.045-.022-.09-.067-.135-.044-.044-.088-.067-.133-.067l.045-.156h1.667a.32.32 0 0 1 .156.044c.044.045.066.068.066.135l-.022.134-.422 1.902c0 .022-.022.067-.022.134 0 .09.044.134.155.134h.045c.066 0 .11-.022.155-.044a.204.204 0 0 0 .067-.157l.422-1.79v-.157a.32.32 0 0 0-.044-.134c-.044-.045-.089-.067-.133-.067l.044-.157h1.668c.066 0 .11.023.155.045.045.045.067.067.067.134l-.022.135-.69 2.998c-.133.56-.333.94-.578 1.141-.244.18-.622.269-1.178.269l-.045.067zm2.669-1.455l1.556-2.774c.022-.045.022-.09.022-.135a.243.243 0 0 0-.066-.156c-.045-.045-.09-.067-.134-.067l.045-.157h1.667c.134 0 .2.067.223.18l.289 3.087c0 .045.022.09.066.134a.201.201 0 0 0 .156.067l-.022.157h-1.446a.825.825 0 0 1-.266-.045c-.067-.044-.09-.112-.09-.201l-.021-.962-.378.783c-.023.045-.023.09-.023.134 0 .045.023.067.045.112.044.045.066.067.11.067l-.044.157H86.12c-.134 0-.2-.067-.2-.202 0-.044 0-.09.044-.134l-.022-.045zm6.514-2.148l-.467 2.037v.111c0 .045.023.09.067.135.045.044.09.067.134.067l-.045.156h-1.668a.32.32 0 0 1-.155-.044c-.045-.045-.067-.09-.067-.135l.022-.134.645-2.82.022-.156c0-.045-.022-.09-.066-.134-.045-.045-.09-.045-.134-.045l.023-.157h1.511c.112 0 .2.023.245.068.067.044.089.111.089.201v.09c0 .022-.022.067-.022.134h.089c.11-.18.222-.314.311-.38a.917.917 0 0 1 .511-.135h.512c.244 0 .422.045.533.112.112.09.156.201.156.38 0 .112-.022.224-.044.358l-.534 2.328v.111c0 .045.022.09.067.135.044.044.089.067.133.067l-.044.156h-1.668c-.067 0-.111-.022-.156-.044-.044-.045-.066-.09-.066-.135l.022-.134.511-2.215c0-.022.023-.067.023-.112 0-.09-.067-.112-.156-.112-.067 0-.134.022-.156.067-.044.045-.066.112-.089.18h-.089zm4.158 1.164l-.044.246-.022.112c0 .09.044.134.133.134h.044c.09 0 .156-.045.178-.179l.134-.604h-.156a.252.252 0 0 0-.178.067.506.506 0 0 0-.111.246l.022-.022zm1.712-2.283c.2 0 .356.068.49.18.133.111.177.268.177.47 0 .111 0 .223-.022.313l-.511 2.237-.023.157c0 .045.023.09.067.112a.315.315 0 0 0 .134.045l-.045.156h-1.512c-.111 0-.2-.022-.244-.067-.067-.045-.067-.112-.067-.179v-.09l.022-.089h-.089c-.111.201-.222.336-.333.38-.112.068-.29.09-.556.09h-.267c-.222 0-.4-.045-.511-.134-.134-.112-.2-.314-.2-.582v-.134c0-.023.022-.135.066-.336.09-.425.245-.738.445-.917.178-.18.445-.269.756-.269h.89c.133 0 .2-.045.222-.157v-.09c0-.089-.045-.111-.156-.111h-.89c-.2 0-.31-.067-.31-.246l.021-.134.134-.56h2.268l.044-.045zm3.002 3.29l.267-1.164h-.356l-.222 1.007v.112c0 .045.022.09.066.134.045.045.09.067.134.067l-.045.157h-1.667a.316.316 0 0 1-.156-.045c-.044-.044-.067-.09-.067-.134l.023-.134.644-2.797v-.157c0-.045-.022-.09-.066-.134-.045-.045-.09-.067-.134-.067l.045-.157h1.667c.067 0 .112.022.156.045.044.045.067.067.067.134l-.023.134-.222.94h.356l.178-.76c0-.023.022-.045.022-.09v-.067c0-.045-.022-.09-.067-.135-.044-.044-.089-.067-.133-.067l.044-.156h1.668a.32.32 0 0 1 .156.044c.044.045.066.068.066.135l-.022.134-.667 2.842v.112c0 .044.022.09.067.134.044.045.089.067.133.067l-.044.157h-1.668c-.067 0-.111-.023-.156-.045-.044-.045-.066-.09-.066-.134l.022-.135v.023zm-58.255.425h-.444c-.134 0-.2-.067-.2-.224l-.023-.515h-.845l-.244.426c-.045.067-.045.112-.045.156 0 .067.045.09.112.09l-.023.067h-.533c-.09 0-.134-.022-.134-.09 0-.044 0-.067.045-.111l1.423-2.372c.022-.067.044-.09.044-.135 0-.067-.044-.09-.11-.112l.021-.067h.6c.067 0 .112.023.156.067.045.045.067.09.067.157l.044 2.417c0 .067 0 .134.023.156.022.023.044.045.11.045l-.021.067-.023-.022zm-.689-2.103l-.556.895h.556l-.022-.895h.022zm1.2.626c.134-.537.268-.895.445-1.096.2-.247.512-.358.934-.358.623 0 .912.29.912.85 0 .09 0 .179-.022.268-.023.09-.023.202-.067.336-.133.56-.29.94-.467 1.164-.2.223-.511.358-.934.358-.311 0-.556-.067-.711-.202-.156-.134-.223-.335-.223-.626 0-.18.023-.403.09-.672l.044-.022zm.601-.022c-.067.268-.111.492-.111.626s.022.246.089.291c.067.067.178.09.311.09.2 0 .334-.067.445-.224.089-.157.2-.425.289-.85.044-.202.067-.358.067-.493 0-.29-.134-.447-.423-.447-.178 0-.333.067-.422.224-.09.134-.178.402-.267.76l.022.023zm4.692 1.499h-.6c-.245 0-.423-.067-.534-.201-.09-.112-.156-.314-.156-.538 0-.111.022-.223.022-.358.022-.134.045-.268.09-.425.133-.514.288-.895.466-1.096a.999.999 0 0 1 .734-.291h.823l-.045.246a.338.338 0 0 1-.089.18.343.343 0 0 1-.178.044h-.356c-.244 0-.4.067-.51.224-.09.112-.157.335-.246.693a3.073 3.073 0 0 0-.11.739c0 .134.022.224.088.268.067.045.156.067.312.067h.444c.111 0 .156 0 .178-.022a.297.297 0 0 0 .134-.112h.088l-.066.291a.396.396 0 0 1-.156.246.642.642 0 0 1-.311.067l-.022-.022zm1.156-.269l.578-2.371v-.09c0-.067-.022-.112-.111-.112l.022-.09h.49c.11 0 .155.068.155.18 0 .022 0 .067-.022.09l-.2.85.889-.85c.044-.023.044-.068.044-.09 0-.045-.022-.068-.089-.068l.023-.089h.6c.089 0 .133.022.133.09 0 .044-.022.067-.066.111l-.979.963.4 1.163c.023.045.045.09.067.09.022.022.067.022.111.022h.134l-.045.246c-.022.09-.044.157-.089.18a.442.442 0 0 1-.2.044h-.133a.343.343 0 0 1-.178-.045.42.42 0 0 1-.089-.201l-.4-1.141-.311.29-.178.806v.09c0 .067.022.111.11.111l-.021.068h-.49c-.11 0-.155-.068-.155-.18v-.089.022zm9.805.157h-.066l.11-1.678-.044 1.678zm.734-2.573h-.622l.155-.18h.467v.18zm.978 1.857h-.222v-.157h.222v.157zm.112.985h-.245v-.202h.245v.202zm.6 7.563l-.334-.023-.422-3.58h.245l.511 3.603zm.067-2.82h-.267l-.022-.246h.289v.246zm-3.38-1.387l.1-.134-.1.134zm1.078.515l-.1.134.1-.134zm-1.167.604v-.134.134zm-.111 1.03l.1-.135-.1.134zm.467-4.476c-.178-.067-.334-.157-.512-.224-.022-.246-.022-.515-.044-.76l.956-.292c.045-.156.045-.156.156-2.125h-.267v-.47h.311l.245-.246h.511c0-.045.09-.112.111-.157h.067l.133.738.267.448.134.873h.31v.47l-.2.134.045.38h.245v.47l-.222.224.533 3.96h.4v.694l-.244.09.333 2.416.378.067.312 1.164-1.312-.179-2.113-.067-.222.224c-.69-.023-1.023.134-1.623.447l.422-.716-.066-.716.511-.201.067-.85-.156-.135v-.134l.178-.09.045-.76-.178-.135.022-.134.178-.09.044-.738-.133-.09v-.134l.155-.067.067-.85-.111-.09.022-.134.134-.067.044-.806-.089-.067.09-.09.066-1.163v-.022zm.2 1.342l.022-.246h-.155v.135l.155.134-.022-.023zm-.045.627l.023-.448-.156-.134-.044.65.177-.09v.022zm-.022.425l.022-.246-.177.09v.044l.155.112zm-.044.694l.022-.492-.156-.112-.044.693.178-.09zm-.022.425l.022-.246-.178.09v.066l.156.112v-.022zm-.045.604l.022-.425-.155-.112-.045.604.178-.09v.023zm-.022.492l.022-.313-.178.09v.112l.156.111zm-.045.605l.023-.403-.156-.112-.045.626.178-.089v-.022zm-.044.537l.022-.358-.178.09v.133l.178.135h-.022zm-.045.693l.045-.514-.178-.135-.044.716.177-.067zm.49-4.99l.022-.38h-.111l-.023.268.112.09v.022zm-.023.426v-.224l-.11-.09-.023.403.133-.067v-.022zm-.022.626l.022-.447-.133.067-.022.29.133.09zm-.022.47l.022-.29-.133-.09-.023.47.156-.068-.022-.022zm-.022.649l.022-.47-.156.09-.022.29.156.09zm-.023.38v-.201l-.155-.112-.022.38.177-.09v.023zm-.022.761l.022-.582-.177.09-.023.358.178.134zm-.022.313v-.134l-.178-.134-.022.38.2-.112zm-.045.85l.023-.67-.2.111-.023.403.2.157zm-.022.403v-.223l-.222-.157-.022.47.244-.09zm.045-.201v.179l.155-.067-.133-.112h-.022zm.044-.895l-.022.716.133.112.045-.895-.156.067zm.022-.269v.1l.1-.05-.1-.05zm0-.2l.09.066.066.045.045-.783-.156.067-.022.626-.023-.022zm.045-.963v.179l.156-.067-.156-.09v-.022zm.022-.671l-.022.492.156.09.022-.672-.156.067v.023zm.022-.426v.247l.156-.068v-.067l-.156-.112zm.023-.67l-.023.491.156.112.022-.671-.155.09v-.023zm.022-.359v.18l.155-.068-.133-.112h-.022zm.022-.604l-.022.403.155.134.023-.537h-.156zm.69-2.305V26.56c-.09-.023-.2-.045-.29-.068 0 .672-.022 1.365-.022 2.037l.334.112-.023-.023zm.377-1.969v2.103l.111.045c-.044-.716-.066-1.41-.11-2.148h-.023.022zm-.022 2.081v-2.103l-.333-.067v2.058l.333.112zm0 6.109a.328.328 0 0 1-.289 0v.514c.067.112.222.112.267 0v-.514h.022zm.067-.425a.259.259 0 0 1 0 .38v.604a.389.389 0 0 1-.156.202v.537l1.134.067-.556-5.281h-.467v1.23c.023 0 .023.023.023.045l.022 2.216zm-.067-.045l-.022-2.17c0-.023 0-.023.022-.045v-1.231h-.333v2.282c.022 0 .022.023.022.045l.022 1.119a.328.328 0 0 1 .29 0zm-1 1.723l.8.045v-.56c-.067-.022-.156-.09-.133-.201v-.604a.259.259 0 0 1 0-.38l-.023-1.164c0-.023 0-.023.023-.023v-2.282h-.4l-.023.626.045.045v.135l-.045.022-.044.805.133.09-.022.134-.134.067-.044.806a.168.168 0 0 0 .089.045v.134l-.09.045-.088 2.193-.044.022zm.355-9.89v-.112h.111v.044s-.022 0-.022.023l.022.022.023.023h-.023l-.022-.023s0-.022-.022-.022h-.022v.045h-.045zm.023-.04h.1v-.05h-.1v.1-.05zm.088.04l.045-.112h.022l.045.112h-.023l-.022-.045h-.044l-.023.045h-.022.022zm.045-.023h.1l-.05-.034v-.033.033l-.05.067v-.033zm.089 0h.022v.033h.022-.022v-.033h.067v.033h-.067.045v.067h-.067s0-.033-.022-.033l.022-.067zm.167.023v.022h-.067v-.067h-.033v-.023h.033v-.022h.033v.022h.034v.023h-.034v.045h.034zm-.011.032v-.1h.1v.025h-.05v.075h-.05z"/><path fill="#FFF212" d="M59.95 26.066h1v1h-1z"/></g></svg>